<?xml version="1.0" standalone="no"?>
<!DOCTYPE svg PUBLIC "-//W3C//DTD SVG 20010904//EN"
 "http://www.w3.org/TR/2001/REC-SVG-20010904/DTD/svg10.dtd">
<svg version="1.0" xmlns="http://www.w3.org/2000/svg"
 width="159.000000pt" height="159.000000pt" viewBox="0 0 159.000000 159.000000"
 preserveAspectRatio="xMidYMid meet">
<metadata>
Created by potrace 1.11, written by Peter Selinger 2001-2013
</metadata>
<g transform="translate(0.000000,159.000000) scale(0.100000,-0.100000)"
fill="#000000" stroke="none">
<path d="M698 1585 c-2 -2 -23 -6 -48 -10 -195 -29 -407 -172 -526 -355 -24
-38 -44 -72 -44 -77 0 -5 -10 -29 -21 -53 -56 -116 -72 -344 -34 -491 63 -242
238 -442 472 -539 106 -44 198 -60 328 -55 177 6 320 58 466 171 124 95 234
267 275 429 19 74 25 252 11 335 -41 236 -209 455 -437 570 -94 47 -199 72
-327 75 -61 2 -113 1 -115 0z"/>
</g>
</svg>
